<svg width="64" height="64" viewBox="0 0 64 64" fill="none" xmlns="http://www.w3.org/2000/svg">
  <path d="M36.4445 5.27111C33.9893 5.27111 32 7.26045 32 9.71556V9.72444L27.5556 0.826668C25.1005 0.826668 23.1111 2.816 23.1111 5.27111V7.55556L18.6667 4.82667C16.2116 4.82667 14.2222 6.816 14.2222 9.27111V15.5556L12.4445 32H36.5191L36.4445 5.27111Z" fill="#EF9645"/>
  <path d="M55.7778 28.8338C53.3227 27.7476 49.8151 29.2036 47.3333 32.7236C45.7031 35.0347 45.2231 38.3253 43.0827 38.6684C42.2649 38.7982 40.8889 38.112 40.8889 36.1849V8C40.8889 8 40.8889 4.44444 37.3333 4.44444C33.7778 4.44444 33.7778 8 33.7778 8V28.6809C33.7778 28.6293 32 28.5671 32 28.5351V3.55556C32 3.55556 32 0 28.4445 0C24.8889 0 24.8889 3.55556 24.8889 3.55556V28.5387C24.8889 28.5689 23.1111 28.6116 23.1111 28.6613V7.55556C23.1111 7.55556 23.1111 4 19.5556 4C16 4 16 7.55556 16 7.55556V30.0231C16 30.2329 14.2222 30.4693 14.2222 30.7307V15.5556C14.2222 15.5556 14.2222 12 10.6667 12C7.11112 12 7.11112 15.5556 7.11112 15.5556V42.6667C7.11112 54.448 16.6631 64 28.4445 64C36.9333 64 42.7733 59.3813 46.0373 54.592C48.8053 50.5298 49.6089 46.3111 49.7778 45.0364C49.7778 45.0364 49.9965 42.4071 51.8329 39.9431C54.4445 36.4427 56.2773 34.3324 57.3885 33.0702C57.952 32.4338 58.4996 30.0373 55.7778 28.8338Z" fill="#FFDC5D"/>
  <path d="M41.6693 38.1707C41.1413 37.6978 41.008 37.1893 40.928 36.7342C37.5645 37.1947 33.0045 38.1369 29.5022 41.5609C24.9582 46.0036 24.1831 50.8053 24.2205 54.0178C24.2507 56.608 25.664 57.8347 26.0782 53.9964C26.5973 49.1858 30.0853 39.6622 41.6942 38.7431C41.744 38.7396 42.3822 38.7004 42.7449 38.6809C42.7449 38.6809 42.1191 38.5742 41.6693 38.1707Z" fill="#EF9645"/>
</svg>
