<svg width="64" height="64" viewBox="0 0 64 64" fill="none" xmlns="http://www.w3.org/2000/svg">
  <g clip-path="url(#clip0_5_44)">
    <path d="M52 27.6365C50.8324 25.9065 48.8691 24.7697 46.6406 24.7697L45.9199 24.7697C45.9199 24.7697 38.2036 16.5028 38.4963 15.8921C36.9164 16.7535 35.8295 18.4223 35.8295 20.3652C35.8295 20.3652 27.8884 15.3645 28.2661 14.6125C26.7626 15.621 25.7392 17.4823 25.7392 19.6364L25.7392 20.3972C25.7392 20.3972 17.8875 18.0288 18.3257 17.3438C16.7401 18.2037 15.6489 19.8754 15.6489 21.8226L15.6489 24.5715L7 33.7128L7 37.5679L31.7357 58.6125C31.7357 58.6139 50.6594 26.3088 52 27.6365Z" fill="#EF9645"/>
    <path d="M11.5515 39.2249C13.699 39.2249 15.5406 38.0142 16.4934 36.2484C17.4812 38.0142 19.3461 39.2249 21.514 39.2249L21.6248 39.2249C23.3046 39.2249 24.7849 38.4819 25.8339 37.3338C25.8674 37.2988 25.9402 37.2143 25.9402 37.2143C26.2098 36.9055 26.4399 36.5616 26.641 36.2018C26.6993 36.0969 27.0504 35.297 27.1393 34.9881C27.215 34.7361 27.2937 34.4869 27.3345 34.2218C27.5399 34.4651 27.7658 34.6865 28.0047 34.892C28.1052 34.9779 28.6603 35.3859 28.8439 35.4937C29.702 36.0051 30.6957 36.3096 31.7694 36.3096L36.3821 36.3096C35.6026 36.7029 34.9266 37.2041 34.3074 37.7665C31.7884 40.051 30.55 43.7181 30.55 48.931C30.55 49.3332 30.8763 49.6595 31.2784 49.6595C31.6806 49.6595 32.0069 49.3332 32.0069 48.931C32.0069 43.1586 33.4784 39.5673 36.7274 37.7665C38.4393 36.818 40.6349 36.3577 43.3871 36.3577C43.473 36.3577 44.1534 36.3096 44.1534 36.3096C44.5555 36.3096 44.8819 35.9832 44.8819 35.5811C44.8819 35.179 44.5555 34.8526 44.1534 34.8526L31.768 34.8526C29.3538 34.8526 27.3972 32.896 27.3972 30.4818C27.3972 28.0677 29.3538 26.111 31.768 26.111L47.7943 26.111C49.2119 26.111 51.1278 26.1926 52.4827 27.5199C52.9562 27.9832 53.3627 28.5922 53.6527 29.4095L56.0697 37.3819C56.297 38.1278 57.1333 41.5444 56.9818 42.2568C56.9818 52.9507 44.3064 64.0701 29.2941 64.0701C14.7597 64.0716 7.00001 52.2456 7 37.784L7 37.4504C7.01457 37.4649 7.0306 37.4737 7.04517 37.4882C8.32873 38.7733 9.6662 39.2249 11.1902 39.2249L11.5515 39.2249Z" fill="#FFDC5D"/>
    <path d="M11.1727 20.2847L11.5675 20.2847C13.8738 20.2847 15.7416 22.154 15.7416 24.4574L15.7416 33.5953C15.7416 35.9002 13.8738 37.768 11.569 37.768L11.1727 37.768C8.8678 37.768 7 35.9002 7 33.5953L7 24.4574C7 22.154 8.8678 20.2847 11.1727 20.2847ZM25.9402 33.3972C25.9402 34.6953 25.3633 35.8492 24.4629 36.6505C23.6907 37.3382 22.684 37.768 21.5694 37.768C19.1552 37.768 17.1986 35.8113 17.1986 33.3972L17.1986 20.2847C17.1986 19.0958 17.6765 18.0206 18.4472 17.2324C19.2397 16.4209 20.3441 15.9139 21.5694 15.9139C23.9835 15.9139 25.9402 17.8706 25.9402 20.2847L25.9402 33.3972ZM31.768 24.6555C30.0182 24.6555 28.4651 25.4437 27.3972 26.6661L27.3972 17.3708C27.3972 16.2665 27.8197 15.2699 28.4942 14.5006C29.2955 13.5871 30.4567 13 31.768 13C34.1821 13 36.1388 14.9567 36.1388 17.3708L36.1388 24.6555L31.768 24.6555ZM37.5957 18.8176C37.5957 17.6345 38.0707 16.5666 38.8341 15.7798C39.6267 14.9654 40.7296 14.4555 41.9563 14.4555L41.9767 14.4555C44.3851 14.4569 46.3374 16.4092 46.3374 18.8176L46.3374 24.6555L37.5957 24.6555L37.5957 18.8176Z" fill="#FFDC5D"/>
  </g>
  <defs>
    <clipPath id="clip0_5_44">
      <rect width="64" height="64" fill="white"/>
    </clipPath>
  </defs>
</svg>
