<svg width="64" height="64" viewBox="0 0 64 64" fill="none" xmlns="http://www.w3.org/2000/svg">
  <g clip-path="url(#clip0_5_42)">
    <path d="M49.5841 31.2392C49.0876 30.7449 48.5073 30.3281 47.8803 30.0064L47.1015 27.3778L31.501 27.2692L30.9033 29.3841C29.9939 29.5683 28.8763 30.1382 28.1909 30.7759L21.1598 23.1111C19.569 23.8167 18.4552 25.3985 18.4552 27.2459L18.4552 29.1069L10.6667 37.1827L10.6978 41.4241L30.138 62.2222C30.138 62.2222 50.618 32.5865 50.6667 32.6446C50.4194 32.2104 49.6717 31.2819 49.5841 31.2392Z" fill="#EF9645"/>
    <path d="M44.6878 29.208L31.9675 29.208C31.5654 29.208 31.1731 29.2486 30.7942 29.3259L30.6531 28.7886L24.3268 4.69704C24.3268 4.69704 23.5227 0.914372 27.3034 0.112222C31.0842 -0.69186 31.8882 3.08887 31.8882 3.08887L37.8744 25.4505C38.7365 25.4969 39.5715 25.5722 40.3968 25.6573L44.3805 5.33875C44.3805 5.33875 44.7439 1.49037 48.5942 1.85182C52.4426 2.2152 52.0792 6.06359 52.0792 6.06359L48.0878 27.6366L47.6606 29.9444C46.7638 29.4902 45.7625 29.208 44.6878 29.208ZM14.4091 25.3422L14.7338 25.3422C16.7808 25.3422 18.4373 27.0006 18.4373 29.0476L18.4373 37.1C18.4373 39.1469 16.7808 40.8053 14.7338 40.8053L14.4091 40.8053C12.3622 40.8053 10.7057 39.1469 10.7057 37.1L10.7057 29.0476C10.7057 27.0006 12.3622 25.3422 14.4091 25.3422ZM27.7809 31.0636L27.6726 31.1834C26.7564 32.2059 26.1688 33.5241 26.1688 35.0067C26.1688 35.1284 26.1939 35.2444 26.2036 35.3643C26.2887 36.6748 26.7989 37.8616 27.6108 38.7932C27.4735 39.0425 27.2957 39.2629 27.1101 39.4755C26.4027 40.2815 25.3899 40.8053 24.2359 40.8053C22.102 40.8053 20.3702 39.0735 20.3702 36.9396L20.3702 25.3422C20.3702 24.4898 20.6543 23.7089 21.122 23.0692C21.8256 22.1085 22.9525 21.4765 24.2359 21.4765C26.3698 21.4765 28.1017 23.2083 28.1017 25.3422L28.1017 30.7118C27.9838 30.8181 27.891 30.9495 27.7809 31.0636Z" fill="#FFDC5D"/>
    <path d="M14.6913 42.7382C16.6706 42.7382 18.4121 41.7215 19.4269 40.1829C19.6647 40.5367 19.9507 40.8517 20.26 41.1436C22.5505 43.2988 26.1244 43.1615 28.3143 40.9774C28.6081 40.6836 28.9 40.3878 29.1242 40.0341L29.1184 40.0283C29.5069 40.2506 30.0346 40.8053 31.9675 40.8053L36.8712 40.8053C36.1561 41.3446 35.5028 42.0095 34.892 42.7382C32.5184 45.5738 31.0011 49.7082 31.0011 54.3356C31.0011 54.869 31.434 55.302 31.9675 55.302C32.501 55.302 32.9339 54.869 32.9339 54.3356C32.9339 49.4106 34.7818 45.106 37.5284 42.7382C38.9433 41.5186 40.5901 40.8053 42.3568 40.8053C43.7349 40.958 43.9939 38.8724 42.5984 38.8724L31.9675 38.8725C29.8336 38.8725 28.1017 37.1406 28.1017 35.0067C28.1017 32.8728 29.8336 31.1409 31.9675 31.1409L47.4306 31.1409C49.089 31.1409 50.6392 32.2929 51.1282 33.8759L53.2293 40.8053C53.4284 41.4529 54.1551 44.4218 54.0237 45.0403C54.0237 54.3356 44.9469 64 33.9004 64C21.2651 64 11.0072 53.8891 10.7328 41.3195L10.7598 41.3388C11.7553 42.199 13.0329 42.7382 14.4517 42.7382L14.6913 42.7382Z" fill="#FFDC5D"/>
  </g>
  <defs>
    <clipPath id="clip0_5_42">
    	<rect width="64" height="64" fill="white"/>
    </clipPath>
  </defs>
</svg>
